<?xml version="1.0" encoding="UTF-8"?>
<svg xmlns="http://www.w3.org/2000/svg" xmlns:xlink="http://www.w3.org/1999/xlink" width="38px" height="38px" viewBox="0 0 38 38" version="1.1">
<g id="surface1">
<rect x="0" y="0" width="38" height="38" style="fill:rgb(100%,100%,100%);fill-opacity:1;stroke:none;"/>
<path style=" stroke:none;fill-rule:nonzero;fill:rgb(87.843137%,20.392157%,26.666667%);fill-opacity:1;" d="M 19 34.113281 C 10.652344 34.113281 3.886719 27.347656 3.886719 19 C 3.886719 10.652344 10.652344 3.886719 19 3.886719 C 27.347656 3.886719 34.113281 10.652344 34.113281 19 C 34.113281 27.347656 27.347656 34.113281 19 34.113281 Z M 19 36.273438 C 28.539062 36.273438 36.273438 28.539062 36.273438 19 C 36.273438 9.460938 28.539062 1.726562 19 1.726562 C 9.460938 1.726562 1.726562 9.460938 1.726562 19 C 1.726562 28.539062 9.460938 36.273438 19 36.273438 Z M 19 36.273438 "/>
<path style=" stroke:none;fill-rule:nonzero;fill:rgb(87.843137%,20.392157%,26.666667%);fill-opacity:1;" d="M 10.980469 22.382812 C 11.496094 22.085938 12.15625 22.261719 12.453125 22.777344 C 13.804688 25.117188 16.300781 26.558594 19 26.558594 C 21.699219 26.558594 24.195312 25.117188 25.546875 22.777344 C 25.738281 22.441406 26.09375 22.234375 26.484375 22.234375 C 26.871094 22.230469 27.226562 22.4375 27.421875 22.773438 C 27.613281 23.109375 27.613281 23.523438 27.417969 23.859375 C 25.679688 26.867188 22.472656 28.71875 19 28.714844 C 15.527344 28.71875 12.320312 26.867188 10.582031 23.859375 C 10.285156 23.339844 10.460938 22.679688 10.980469 22.382812 Z M 16.839844 15.761719 C 16.839844 17.550781 15.875 19 14.683594 19 C 13.488281 19 12.523438 17.550781 12.523438 15.761719 C 12.523438 13.972656 13.488281 12.523438 14.683594 12.523438 C 15.875 12.523438 16.839844 13.972656 16.839844 15.761719 Z M 25.476562 15.761719 C 25.476562 17.550781 24.511719 19 23.316406 19 C 22.125 19 21.160156 17.550781 21.160156 15.761719 C 21.160156 13.972656 22.125 12.523438 23.316406 12.523438 C 24.511719 12.523438 25.476562 13.972656 25.476562 15.761719 Z M 25.476562 15.761719 "/>
</g>
</svg>
