 <?xml version="1.0" standalone="no"?>
 <svg
        className="wave"
        xmlns="http://www.w3.org/2000/svg"
        viewBox="0 0 1440 320">
        <defs>
          <linearGradient
            id="linearGradient-1"
            x1="50%"
            x2="54.584%"
            y1="29.143%"
            y2="70.857%">
            {/* Set gradient color */}
            <stop offset="0%" stopColor="#FF3B3B"></stop>
            <stop offset="100%" stopColor="#DC3545"></stop>
          </linearGradient>
        </defs>
        <path
          fill="url(#linearGradient-1)"
          fill-opacity="1"
          d="M0,96L34.3,112C68.6,128,137,160,206,160C274.3,160,343,128,411,112C480,96,549,96,617,106.7C685.7,117,754,139,823,160C891.4,181,960,203,1029,208C1097.1,213,1166,203,1234,181.3C1302.9,160,1371,128,1406,112L1440,96L1440,320L1405.7,320C1371.4,320,1303,320,1234,320C1165.7,320,1097,320,1029,320C960,320,891,320,823,320C754.3,320,686,320,617,320C548.6,320,480,320,411,320C342.9,320,274,320,206,320C137.1,320,69,320,34,320L0,320Z"></path>
      </svg>